<svg xmlns="http://www.w3.org/2000/svg" xmlns:xlink="http://www.w3.org/1999/xlink" version="1.1" > 
    <symbol id="list-ul-icon"  viewBox="0 0 512 512">
        <path  d="M96 96c0 26.51-21.49 48-48 48S0 122.51 0 96s21.49-48 48-48 48 21.49 48 48zM48 208c-26.51 0-48 21.49-48 48s21.49 48 48 48 48-21.49 48-48-21.49-48-48-48zm0 160c-26.51 0-48 21.49-48 48s21.49 48 48 48 48-21.49 48-48-21.49-48-48-48zm96-236h352c8.837 0 16-7.163 16-16V76c0-8.837-7.163-16-16-16H144c-8.837 0-16 7.163-16 16v40c0 8.837 7.163 16 16 16zm0 160h352c8.837 0 16-7.163 16-16v-40c0-8.837-7.163-16-16-16H144c-8.837 0-16 7.163-16 16v40c0 8.837 7.163 16 16 16zm0 160h352c8.837 0 16-7.163 16-16v-40c0-8.837-7.163-16-16-16H144c-8.837 0-16 7.163-16 16v40c0 8.837 7.163 16 16 16z"/>
    </symbol>
    <symbol id="arrow-left-icon" viewBox="0 0 256 512">
    <path d="M31.7 239l136-136c9.4-9.4 24.6-9.4 33.9 0l22.6 22.6c9.4 9.4 9.4 24.6 0 33.9L127.9 256l96.4 96.4c9.4 9.4 9.4 24.6 0 33.9L201.7 409c-9.4 9.4-24.6 9.4-33.9 0l-136-136c-9.5-9.4-9.5-24.6-.1-34z"></path>
    </symbol>
    <symbol id="arrow-right-icon" viewBox="0 0 256 512">
    <path  d="M224.3 273l-136 136c-9.4 9.4-24.6 9.4-33.9 0l-22.6-22.6c-9.4-9.4-9.4-24.6 0-33.9l96.4-96.4-96.4-96.4c-9.4-9.4-9.4-24.6 0-33.9L54.3 103c9.4-9.4 24.6-9.4 33.9 0l136 136c9.5 9.4 9.5 24.6.1 34z"></path>
    </symbol>
    
    <view id="list-ul" width="25" height="15" viewBox="0 0 15 15"/>
    <view id="arrow-left" width="15" height="15" viewBox="0 15 15 15"/>
    <view id="arrow-right" width="15" height="15" viewBox="0 30 15 15"/>


    <use xlink:href="#list-ul-icon" fill="#071f08" width="25" height="15" x="0" y="0"></use>
    <use xlink:href="#arrow-left-icon" fill="#071f08" width="15" height="15" x="0" y="15"></use>
    <use xlink:href="#arrow-right-icon" fill="#071f08" width="15" height="15" x="0" y="30"></use>

</svg>
